<svg width="22" height="17" viewBox="0 0 22 17" fill="none" xmlns="http://www.w3.org/2000/svg">
<g id="Icon" clip-path="url(#clip0_359_2614)">
<path id="Vector" d="M13.5347 8.45675C13.5347 9.69485 13.2758 10.7975 12.7579 11.7648C12.2401 12.732 11.502 13.488 10.5436 14.0326C9.5853 14.5773 8.48708 14.8496 7.24899 14.8496C6.36208 14.8496 5.51387 14.677 4.70435 14.3318C3.89482 13.9865 3.19839 13.5222 2.61506 12.9389C2.03173 12.3556 1.56744 11.6591 1.2222 10.8496C0.876965 10.0401 0.704346 9.19187 0.704346 8.30497C0.704346 7.41806 0.876965 6.56985 1.2222 5.76032C1.56744 4.9508 2.03173 4.25437 2.61506 3.67104C3.19839 3.0877 3.89482 2.62342 4.70435 2.27818C5.51387 1.93294 6.36208 1.76032 7.24899 1.76032C8.95137 1.76032 10.4127 2.33175 11.6329 3.47461L9.85613 5.17997C9.1597 4.50735 8.29066 4.17104 7.24899 4.17104C6.51685 4.17104 5.83976 4.35556 5.21774 4.72461C4.59572 5.09366 4.10316 5.59514 3.74006 6.22907C3.37696 6.863 3.19542 7.55497 3.19542 8.30497C3.19542 9.05497 3.37696 9.74693 3.74006 10.3809C4.10316 11.0148 4.59572 11.5163 5.21774 11.8853C5.83976 12.2544 6.51685 12.4389 7.24899 12.4389C7.74304 12.4389 8.19691 12.3704 8.6106 12.2335C9.02429 12.0966 9.36506 11.9255 9.63292 11.7201C9.90077 11.5148 10.1344 11.2812 10.3338 11.0193C10.5332 10.7573 10.679 10.5103 10.7713 10.2782C10.8636 10.046 10.9276 9.8258 10.9633 9.61747H7.24899V7.36747H13.4276C13.499 7.74247 13.5347 8.10556 13.5347 8.45675ZM21.2758 7.36747V9.24247H19.4097V11.1085H17.5347V9.24247H15.6686V7.36747H17.5347V5.50139H19.4097V7.36747H21.2758Z" fill="white"/>
</g>
<defs>
<clipPath id="clip0_359_2614">
<rect width="20.58" height="16" fill="white" transform="matrix(1 0 0 -1 0.699951 16.3052)"/>
</clipPath>
</defs>
</svg>
