<svg width="249" height="39" viewBox="0 0 249 39" fill="none" xmlns="http://www.w3.org/2000/svg">
<rect y="0.881348" width="249" height="38" rx="4" fill="#FAFAFA"/>
<g clip-path="url(#clip0_37_2345)">
<path d="M25.75 14.3813C25.75 19.6313 19 24.1313 19 24.1313C19 24.1313 12.25 19.6313 12.25 14.3813C12.25 12.5911 12.9612 10.8742 14.227 9.60838C15.4929 8.34251 17.2098 7.63135 19 7.63135C20.7902 7.63135 22.5071 8.34251 23.773 9.60838C25.0388 10.8742 25.75 12.5911 25.75 14.3813Z" stroke="#4E4E4E" stroke-linecap="round" stroke-linejoin="round"/>
<path d="M19 16.6313C20.2426 16.6313 21.25 15.624 21.25 14.3813C21.25 13.1387 20.2426 12.1313 19 12.1313C17.7574 12.1313 16.75 13.1387 16.75 14.3813C16.75 15.624 17.7574 16.6313 19 16.6313Z" stroke="#4E4E4E" stroke-linecap="round" stroke-linejoin="round"/>
</g>
<defs>
<clipPath id="clip0_37_2345">
<rect width="18" height="18" fill="white" transform="translate(10 6.88135)"/>
</clipPath>
</defs>
</svg>
