<svg width="18" height="19" viewBox="0 0 18 19" fill="none" xmlns="http://www.w3.org/2000/svg">
<g id="Icons" clip-path="url(#clip0_359_2665)">
<path id="Vector" d="M11.2876 3.979C12.0201 4.12193 12.6934 4.4802 13.2211 5.00796C13.7489 5.53571 14.1071 6.20895 14.2501 6.9415M11.2876 0.979004C12.8095 1.14808 14.2288 1.82963 15.3123 2.91176C16.3957 3.99388 17.0791 5.41226 17.2501 6.934M16.5001 12.919V15.169C16.5009 15.3779 16.4581 15.5846 16.3745 15.776C16.2908 15.9674 16.168 16.1392 16.0141 16.2804C15.8602 16.4216 15.6785 16.5291 15.4806 16.596C15.2828 16.663 15.0731 16.6878 14.8651 16.669C12.5572 16.4182 10.3403 15.6296 8.39257 14.3665C6.58044 13.215 5.04407 11.6786 3.89257 9.8665C2.62506 7.90991 1.83625 5.68225 1.59007 3.364C1.57133 3.1566 1.59598 2.94757 1.66245 2.75022C1.72892 2.55287 1.83575 2.37152 1.97615 2.21772C2.11654 2.06392 2.28743 1.94104 2.47792 1.8569C2.6684 1.77275 2.87433 1.7292 3.08257 1.729H5.33257C5.69655 1.72542 6.04942 1.85431 6.32539 2.09165C6.60137 2.32899 6.78163 2.65859 6.83257 3.019C6.92754 3.73905 7.10366 4.44605 7.35757 5.1265C7.45848 5.39495 7.48032 5.68669 7.4205 5.96716C7.36069 6.24764 7.22172 6.50509 7.02007 6.709L6.06757 7.6615C7.13524 9.53916 8.68991 11.0938 10.5676 12.1615L11.5201 11.209C11.724 11.0074 11.9814 10.8684 12.2619 10.8086C12.5424 10.7488 12.8341 10.7706 13.1026 10.8715C13.783 11.1254 14.49 11.3015 15.2101 11.3965C15.5744 11.4479 15.9071 11.6314 16.145 11.9121C16.3828 12.1928 16.5092 12.5512 16.5001 12.919Z" stroke="#4E4E4E" stroke-linecap="round" stroke-linejoin="round"/>
</g>
<defs>
<clipPath id="clip0_359_2665">
<rect width="18" height="18" fill="white" transform="translate(0 0.229004)"/>
</clipPath>
</defs>
</svg>
