<svg width="16" height="17" viewBox="0 0 16 17" fill="none" xmlns="http://www.w3.org/2000/svg">
<g id="Icon" clip-path="url(#clip0_359_2611)">
<path id="Vector" d="M14.633 3.9481C14.2341 4.53144 13.752 5.02846 13.1865 5.43917C13.1925 5.52251 13.1955 5.64751 13.1955 5.81417C13.1955 6.58798 13.0824 7.3603 12.8562 8.13114C12.63 8.90197 12.2862 9.64155 11.8249 10.3499C11.3636 11.0582 10.8145 11.6847 10.1776 12.2294C9.54069 12.774 8.77283 13.2085 7.87402 13.5329C6.97521 13.8573 6.0139 14.0195 4.9901 14.0195C3.377 14.0195 1.90081 13.588 0.561523 12.7249C0.769857 12.7487 1.002 12.7606 1.25795 12.7606C2.59724 12.7606 3.79069 12.3499 4.83831 11.5285C4.21331 11.5166 3.65379 11.3246 3.15974 10.9526C2.66569 10.5805 2.3264 10.1058 2.14188 9.52846C2.33831 9.55822 2.51986 9.5731 2.68652 9.5731C2.94248 9.5731 3.19545 9.54036 3.44545 9.47489C2.77879 9.33798 2.2267 9.00614 1.7892 8.47935C1.3517 7.95257 1.13295 7.34096 1.13295 6.64453V6.60882C1.53771 6.83501 1.97224 6.95703 2.43652 6.97489C2.04367 6.71298 1.73117 6.37072 1.49902 5.9481C1.26688 5.52548 1.15081 5.06715 1.15081 4.5731C1.15081 4.04929 1.28176 3.56417 1.54367 3.11775C2.2639 4.00465 3.14039 4.71447 4.17313 5.24721C5.20587 5.77995 6.31152 6.07608 7.4901 6.1356C7.44248 5.90941 7.41867 5.68917 7.41867 5.47489C7.41867 4.67727 7.69992 3.99721 8.26242 3.43471C8.82492 2.87221 9.50498 2.59096 10.3026 2.59096C11.1359 2.59096 11.8383 2.89453 12.4097 3.50167C13.0585 3.37667 13.6687 3.14453 14.2401 2.80525C14.0199 3.48977 13.5972 4.01953 12.9722 4.39453C13.5258 4.33501 14.0794 4.1862 14.633 3.9481Z" fill="white"/>
</g>
<defs>
<clipPath id="clip0_359_2611">
<rect width="14.86" height="16" fill="white" transform="matrix(1 0 0 -1 0.560059 16.3052)"/>
</clipPath>
</defs>
</svg>
