<svg width="16" height="16" viewBox="0 0 16 16" fill="none" xmlns="http://www.w3.org/2000/svg">
<path d="M14.1162 7.41438C13.5718 7.14219 12.551 7.13904 12.5078 7.13904C12.3784 7.13904 12.2734 7.24398 12.2734 7.37341C12.2734 7.50285 12.3784 7.60779 12.5078 7.60779C12.7712 7.60782 13.536 7.64838 13.9066 7.83366C13.9402 7.85051 13.976 7.85844 14.0112 7.85844C14.0972 7.85844 14.18 7.81094 14.221 7.72885C14.2789 7.61307 14.232 7.47229 14.1162 7.41438Z" fill="#333333"/>
<path d="M15.2847 10.7513L14.3168 10.4747C14.275 10.4628 14.2458 10.4241 14.2458 10.3806V10.0575C14.3246 10.003 14.3997 9.94192 14.4699 9.87376C14.8102 9.54351 14.9976 9.10054 14.9976 8.62642V8.18058L15.0912 7.99342C15.1939 7.78795 15.2482 7.55792 15.2482 7.32823V6.12042C15.2482 5.99098 15.1433 5.88604 15.0138 5.88604H12.7584C11.9383 5.88604 11.2711 6.55329 11.2711 7.37342V7.38739C11.2711 7.57839 11.3162 7.76967 11.4016 7.94048L11.5217 8.18054V8.56336C11.5217 9.17004 11.8206 9.71439 12.2735 10.042L12.2735 10.3806C12.2735 10.4328 12.2735 10.4544 12.08 10.5097L11.6077 10.6447L10.2414 10.1479C10.2463 10.0834 10.2246 10.0178 10.1775 9.96842L9.74094 9.50973V8.73973C9.78709 8.7017 9.83259 8.66264 9.87669 8.62132C10.4275 8.10507 10.7433 7.3762 10.7433 6.62161V6.00667C10.9097 5.64476 10.9939 5.26179 10.9939 4.86739V2.36145C10.9939 2.23201 10.889 2.12708 10.7596 2.12708H7.25116C6.01647 2.12708 5.012 3.13157 5.012 4.36623V4.86745C5.012 5.26186 5.09628 5.64482 5.26259 6.00673V6.53582C5.26259 7.41195 5.65216 8.20126 6.265 8.72164V9.50976L5.82841 9.96845C5.78137 10.0179 5.75962 10.0834 5.76453 10.1479L4.3225 10.6722C4.218 10.7102 4.12091 10.7617 4.03275 10.824L3.80631 10.7108C4.48038 10.4174 4.69391 10.0048 4.70416 9.98426C4.73716 9.91829 4.73716 9.84061 4.70416 9.77464C4.53519 9.4367 4.51472 8.81729 4.49828 8.31961C4.49281 8.15392 4.48763 7.99739 4.47772 7.85801C4.39781 6.73382 3.54319 5.88604 2.48975 5.88604C1.43631 5.88604 0.581656 6.73379 0.501781 7.85801C0.491875 7.99742 0.486688 8.15395 0.481219 8.31967C0.464781 8.81733 0.444281 9.43667 0.275344 9.77461C0.242344 9.84057 0.242344 9.91826 0.275344 9.98423C0.285594 10.0047 0.498687 10.4165 1.17409 10.7103L0.545125 11.0248C0.208875 11.193 0 11.531 0 11.9069V13.6384C0 13.7679 0.104937 13.8728 0.234375 13.8728C0.363813 13.8728 0.46875 13.7679 0.46875 13.6384V11.9069C0.46875 11.7096 0.578344 11.5323 0.75475 11.4441L1.53797 11.0525L1.81041 11.3114C2.00091 11.4924 2.24528 11.5829 2.48975 11.5829C2.73416 11.5829 2.97866 11.4924 3.16909 11.3114L3.4415 11.0525L3.69688 11.1802C3.57663 11.3726 3.50837 11.5982 3.50837 11.8346V13.6385C3.50837 13.7679 3.61331 13.8729 3.74275 13.8729C3.87219 13.8729 3.97712 13.7679 3.97712 13.6385V11.8346C3.97712 11.5128 4.18028 11.2228 4.48269 11.1128L6.00306 10.5599L6.63597 11.5094C6.71688 11.6307 6.84653 11.7086 6.99169 11.7229C7.00787 11.7245 7.02397 11.7253 7.04003 11.7253C7.16809 11.7253 7.29075 11.6749 7.38244 11.5833L7.76856 11.1971V13.6385C7.76856 13.768 7.8735 13.8729 8.00294 13.8729C8.13237 13.8729 8.23731 13.768 8.23731 13.6385V11.1971L8.62344 11.5833C8.71509 11.6749 8.83775 11.7254 8.96584 11.7254C8.98188 11.7254 8.998 11.7246 9.01416 11.723C9.15934 11.7086 9.289 11.6308 9.36991 11.5094L10.0028 10.56L11.5232 11.1129C11.8256 11.2228 12.0288 11.5129 12.0288 11.8346V13.6385C12.0288 13.768 12.1337 13.8729 12.2631 13.8729C12.3926 13.8729 12.4975 13.768 12.4975 13.6385V11.8346C12.4975 11.5088 12.368 11.2031 12.1508 10.9771L12.2087 10.9606C12.2672 10.9439 12.3468 10.921 12.4268 10.8818L13.0253 11.4802V13.6385C13.0253 13.768 13.1302 13.8729 13.2596 13.8729C13.3891 13.8729 13.494 13.768 13.494 13.6385V11.4802L14.0883 10.886C14.1198 10.902 14.153 10.9156 14.188 10.9256L15.156 11.2021C15.3769 11.2653 15.5312 11.4699 15.5312 11.6997V13.6385C15.5312 13.768 15.6362 13.8729 15.7656 13.8729C15.8951 13.8729 16 13.768 16 13.6385V11.6997C16 11.2616 15.7059 10.8716 15.2847 10.7513ZM1.50359 10.3373C1.06519 10.1796 0.845281 9.96926 0.751406 9.85442C0.815406 9.68711 0.856906 9.49548 0.885 9.2932C1.01425 9.60311 1.23072 9.86767 1.50359 10.0564V10.3373ZM2.84625 10.9716C2.64634 11.1616 2.33319 11.1615 2.13334 10.9716L1.91537 10.7645C1.95216 10.6956 1.97238 10.6174 1.97238 10.5356V10.2858C2.13587 10.3369 2.30969 10.3644 2.48981 10.3644C2.66972 10.3644 2.84344 10.3368 3.00722 10.2859L3.00719 10.5356C3.00719 10.6174 3.02737 10.6956 3.06419 10.7645L2.84625 10.9716ZM2.48988 9.8957C1.79 9.8957 1.22066 9.32632 1.22066 8.62648C1.22066 8.49704 1.11572 8.39211 0.986281 8.39211C0.973156 8.39211 0.960344 8.39345 0.947812 8.39554C0.9485 8.37539 0.949156 8.3552 0.949844 8.33523C0.955063 8.17407 0.960094 8.02186 0.969375 7.89129C0.999313 7.47017 1.16759 7.08211 1.44322 6.79854C1.72131 6.51242 2.093 6.35486 2.48981 6.35486C2.88663 6.35486 3.25828 6.51242 3.53641 6.79854C3.81203 7.08211 3.98031 7.47017 4.01025 7.89129C4.0195 8.02182 4.02456 8.17401 4.02987 8.33514C4.03034 8.34898 4.03081 8.36301 4.03128 8.37695C3.77628 7.98408 3.38247 7.69454 2.87363 7.53104C2.40353 7.38001 1.99922 7.38936 1.98216 7.38979C1.92078 7.39151 1.86253 7.4172 1.81994 7.46139L1.39706 7.89995C1.30722 7.99314 1.30991 8.14151 1.40309 8.23136C1.49628 8.3212 1.64466 8.31848 1.7345 8.22532L2.08637 7.86042C2.38941 7.87523 3.36431 7.98861 3.74347 8.82351C3.64806 9.43876 3.11925 9.8957 2.48988 9.8957ZM3.47591 10.3381L3.47594 10.0586C3.74859 9.87086 3.96538 9.60679 4.09472 9.29454C4.12281 9.49636 4.16428 9.68754 4.22816 9.85448C4.13481 9.96823 3.91387 10.1804 3.47591 10.3381ZM5.73134 6.53579V5.95429C5.73134 5.91901 5.72337 5.88417 5.70803 5.85239C5.55722 5.54008 5.48075 5.2087 5.48075 4.86745V4.36626C5.48075 3.39004 6.27497 2.59586 7.25116 2.59586H10.5252V4.86748C10.5252 5.20873 10.4487 5.54011 10.2979 5.85242C10.2826 5.8842 10.2746 5.91904 10.2746 5.95432V6.62167C10.2746 7.25639 10.0194 7.84511 9.55612 8.27939C9.49828 8.33357 9.43825 8.38439 9.37619 8.43173C9.37481 8.43267 9.3735 8.4337 9.37216 8.43467C8.93812 8.7642 8.4065 8.92436 7.85131 8.88839C6.66253 8.81142 5.73134 7.77804 5.73134 6.53579ZM7.051 11.2518C7.04938 11.2534 7.04559 11.2572 7.03794 11.2564C7.03031 11.2557 7.02731 11.2512 7.02603 11.2493L6.29712 10.1559L6.53169 9.90942L7.63747 10.6653L7.051 11.2518ZM8.00297 10.3473L6.73375 9.47973V9.04223C7.06216 9.21976 7.42987 9.33079 7.82097 9.35611C7.88275 9.36011 7.94416 9.36207 8.00537 9.36207C8.45353 9.36207 8.88484 9.25495 9.27219 9.05161V9.47973L8.00297 10.3473ZM8.97991 11.2493C8.97863 11.2513 8.97563 11.2557 8.968 11.2565C8.96034 11.2575 8.95659 11.2534 8.95494 11.2518L8.36847 10.6654L9.47425 9.90948L9.70884 10.1559L8.97991 11.2493ZM13.2596 11.0516L12.7277 10.5197C12.737 10.4776 12.7423 10.4314 12.7423 10.3805L12.7422 10.2816C12.8898 10.33 13.0454 10.3588 13.2063 10.3636C13.2244 10.3642 13.2423 10.3644 13.2603 10.3644C13.4382 10.3644 13.6118 10.3375 13.7771 10.2863V10.3806C13.7771 10.4274 13.7829 10.4732 13.794 10.5172L13.2596 11.0516ZM14.1435 9.53739C13.8951 9.77845 13.5669 9.90576 13.2204 9.89507C12.5422 9.87473 11.9904 9.27732 11.9904 8.56342V8.12526C11.9904 8.08886 11.9819 8.05298 11.9657 8.02045L11.8209 7.73089C11.7678 7.62479 11.7398 7.50604 11.7398 7.38742V7.37345C11.7398 6.81176 12.1968 6.35483 12.7584 6.35483H14.7795V7.32826C14.7795 7.48557 14.7423 7.64311 14.6719 7.78382L14.5536 8.02045C14.5373 8.05301 14.5289 8.08886 14.5289 8.12526V8.62645C14.5289 8.9727 14.392 9.2962 14.1435 9.53739Z" fill="#333333"/>
<path d="M14.7632 11.9005C14.6337 11.9005 14.5288 12.0054 14.5288 12.1348V13.6384C14.5288 13.7679 14.6337 13.8728 14.7632 13.8728C14.8926 13.8728 14.9976 13.7679 14.9976 13.6384V12.1348C14.9976 12.0054 14.8926 11.9005 14.7632 11.9005Z" fill="#333333"/>
<path d="M1.23682 12.2103C1.10738 12.2103 1.00244 12.3152 1.00244 12.4446V13.6384C1.00244 13.7679 1.10738 13.8728 1.23682 13.8728C1.36625 13.8728 1.47119 13.7679 1.47119 13.6384V12.4446C1.47119 12.3152 1.36625 12.2103 1.23682 12.2103Z" fill="#333333"/>
<path d="M9.9229 4.95236C9.03647 4.06592 7.18181 4.23539 6.4255 4.34939C6.18728 4.3853 6.0144 4.58689 6.0144 4.82874V5.36867C6.0144 5.49811 6.11934 5.60305 6.24878 5.60305C6.37822 5.60305 6.48315 5.49811 6.48315 5.36867V4.8287C6.48315 4.82074 6.4884 4.81392 6.4954 4.81286C6.7975 4.76733 7.39697 4.69708 8.01806 4.73849C8.74894 4.78714 9.27831 4.97061 9.59147 5.2838C9.683 5.37533 9.8314 5.37533 9.9229 5.2838C10.0144 5.19227 10.0144 5.04386 9.9229 4.95236Z" fill="#333333"/>
<path d="M5.24634 12.4017C5.1169 12.4017 5.01196 12.5066 5.01196 12.636V13.6385C5.01196 13.7679 5.1169 13.8728 5.24634 13.8728C5.37578 13.8728 5.48071 13.7679 5.48071 13.6385V12.636C5.48071 12.5066 5.37578 12.4017 5.24634 12.4017Z" fill="#333333"/>
<path d="M10.7595 12.4017C10.6301 12.4017 10.5251 12.5066 10.5251 12.636V13.6385C10.5251 13.7679 10.6301 13.8728 10.7595 13.8728C10.889 13.8728 10.9939 13.7679 10.9939 13.6385V12.636C10.9939 12.5066 10.889 12.4017 10.7595 12.4017Z" fill="#333333"/>
</svg>
