<svg xmlns="http://www.w3.org/2000/svg" width="25" height="24" viewBox="0 0 25 24" fill="none">
                                            <path d="M3.8125 6H5.8125H21.8125" stroke="#A30D11" stroke-width="2" stroke-linecap="round" stroke-linejoin="round" />
                                            <path d="M8.8125 6V4C8.8125 3.46957 9.02321 2.96086 9.39829 2.58579C9.77336 2.21071 10.2821 2 10.8125 2H14.8125C15.3429 2 15.8516 2.21071 16.2267 2.58579C16.6018 2.96086 16.8125 3.46957 16.8125 4V6M19.8125 6V20C19.8125 20.5304 19.6018 21.0391 19.2267 21.4142C18.8516 21.7893 18.3429 22 17.8125 22H7.8125C7.28207 22 6.77336 21.7893 6.39829 21.4142C6.02321 21.0391 5.8125 20.5304 5.8125 20V6H19.8125Z" stroke="#A30D11" stroke-width="2" stroke-linecap="round" stroke-linejoin="round" />
                                            <path d="M10.8125 11V17" stroke="#A30D11" stroke-width="2" stroke-linecap="round" stroke-linejoin="round" />
                                            <path d="M14.8125 11V17" stroke="#A30D11" stroke-width="2" stroke-linecap="round" stroke-linejoin="round" />
                                        </svg>
                                        