 <svg xmlns="http://www.w3.org/2000/svg" width="25" height="24" viewBox="0 0 25 24" fill="none">
                                            <path d="M11.8125 4H4.8125C4.28207 4 3.77336 4.21071 3.39829 4.58579C3.02321 4.96086 2.8125 5.46957 2.8125 6V20C2.8125 20.5304 3.02321 21.0391 3.39829 21.4142C3.77336 21.7893 4.28207 22 4.8125 22H18.8125C19.3429 22 19.8516 21.7893 20.2267 21.4142C20.6018 21.0391 20.8125 20.5304 20.8125 20V13" stroke="#192E3D" stroke-width="2" stroke-linecap="round" stroke-linejoin="round" />
                                            <path d="M19.3125 2.49998C19.7103 2.10216 20.2499 1.87866 20.8125 1.87866C21.3751 1.87866 21.9147 2.10216 22.3125 2.49998C22.7103 2.89781 22.9338 3.43737 22.9338 3.99998C22.9338 4.56259 22.7103 5.10216 22.3125 5.49998L12.8125 15L8.8125 16L9.8125 12L19.3125 2.49998Z" stroke="#192E3D" stroke-width="2" stroke-linecap="round" stroke-linejoin="round" />
                                        </svg>