<svg width="16" height="16" viewBox="0 0 16 16" fill="none" xmlns="http://www.w3.org/2000/svg">
<g clip-path="url(#clip0_538_153)">
<path d="M15.8298 9.93541C15.5254 9.48816 14.9125 9.36978 14.4639 9.67128L12.422 11.0378L12.4161 6.78434L13.1255 7.44887C13.2763 7.59016 13.473 7.66791 13.6795 7.66791C13.6799 7.66791 13.6803 7.66791 13.6807 7.66791C13.9037 7.66759 14.1189 7.57416 14.2713 7.4115C14.4193 7.25347 14.497 7.04728 14.4899 6.83084C14.4828 6.61441 14.3919 6.41369 14.2339 6.26566L12.889 5.00584C12.797 4.91959 12.6524 4.92431 12.5662 5.01637C12.48 5.10844 12.4847 5.25294 12.5767 5.33919L13.9216 6.599C13.9906 6.66362 14.0303 6.75125 14.0334 6.84572C14.0364 6.94019 14.0026 7.03022 13.9379 7.09919C13.8704 7.17125 13.7788 7.211 13.68 7.21112C13.6798 7.21112 13.6797 7.21112 13.6795 7.21112C13.5894 7.21112 13.5036 7.17719 13.4377 7.1155L13.4377 7.11547L8.09762 2.113C8.00962 2.03059 7.87269 2.03072 7.78491 2.11344L2.45872 7.13087C2.38994 7.19569 2.3 7.22962 2.2055 7.227C2.111 7.22419 2.02328 7.18472 1.95847 7.11587C1.89366 7.04709 1.8595 6.95716 1.86234 6.86269C1.86516 6.76819 1.90462 6.68047 1.97341 6.61566L7.69769 1.22322C7.83337 1.09537 8.04625 1.09506 8.18228 1.22256L11.5312 4.35981C11.6233 4.44603 11.7678 4.44134 11.8541 4.34928C11.9403 4.25722 11.9356 4.11272 11.8435 4.02647L8.49459 0.889218C8.18294 0.597218 7.69534 0.597874 7.3845 0.890749L5.55203 2.617L5.55153 2.30909C5.55141 2.21203 5.51347 2.12084 5.44475 2.05234C5.37616 1.98394 5.28509 1.94628 5.18822 1.94628C5.18803 1.94628 5.18787 1.94628 5.18769 1.94628L3.87684 1.94812C3.77978 1.94825 3.68863 1.98619 3.62009 2.05491C3.55159 2.12362 3.51391 2.21491 3.51406 2.312L3.51769 4.53347L1.66022 6.28325C1.50259 6.43172 1.41225 6.63269 1.40578 6.84912C1.39931 7.06556 1.47753 7.27156 1.626 7.42912C1.77444 7.58675 1.97541 7.67712 2.19187 7.68359C2.20016 7.68384 2.20844 7.68397 2.21672 7.68397C2.42406 7.68397 2.62041 7.60616 2.77194 7.46334L3.47972 6.79659L3.48253 8.80569C3.25353 8.77234 3.02184 8.75484 2.78909 8.75484H2.39831V8.61791C2.39831 8.15819 2.02428 7.78416 1.56456 7.78416H0.83375C0.374031 7.78412 0 8.15812 0 8.61787V12.1966C0 12.3227 0.10225 12.4249 0.228375 12.4249C0.3545 12.4249 0.45675 12.3227 0.45675 12.1966V8.61787C0.45675 8.41 0.625875 8.24087 0.83375 8.24087H1.56453C1.77241 8.24087 1.94153 8.41 1.94153 8.61787V8.98319V13.6643V14.026C1.94153 14.2339 1.77241 14.403 1.56453 14.403H0.83375C0.625875 14.403 0.45675 14.2339 0.45675 14.026V13.6264C0.45675 13.5003 0.3545 13.398 0.228375 13.398C0.10225 13.398 0 13.5003 0 13.6264V14.026C0 14.4857 0.374031 14.8598 0.83375 14.8598H1.56453C2.02425 14.8598 2.39828 14.4858 2.39828 14.026V13.995L5.74278 15.2615C5.74897 15.2638 5.75525 15.2659 5.76162 15.2677C5.90703 15.3087 6.05238 15.3293 6.19588 15.3293C6.2735 15.3293 6.35059 15.3233 6.42691 15.3112L11.3419 14.6027C11.3431 14.6026 11.3442 14.6024 11.3454 14.6022C11.7633 14.5355 12.1575 14.3588 12.4854 14.0914C12.4882 14.0891 12.491 14.0867 12.4937 14.0842L15.6691 11.2283C16.0389 10.9001 16.1079 10.3442 15.8298 9.93541ZM5.09491 2.40319L5.09597 3.04662L3.97372 4.10381L3.97094 2.40472L5.09491 2.40319ZM7.94191 2.593L11.9587 6.35587L11.9657 11.3432L11.3191 11.7759L10.6344 11.7375L10.6163 11.5556C10.5526 10.9151 10.0797 10.3998 9.45441 10.2768L9.45028 7.30978C9.44997 7.08209 9.26459 6.89706 9.03694 6.89706C9.03675 6.89706 9.03659 6.89706 9.03638 6.89706L6.85969 6.90012C6.74928 6.90028 6.64553 6.94341 6.56759 7.02159C6.48962 7.09975 6.44678 7.20362 6.44694 7.314L6.45056 9.90091C6.01941 9.80234 5.60772 9.63956 5.22281 9.4144C5.17478 9.38631 5.12628 9.35919 5.07737 9.33281C5.05831 9.32253 5.03894 9.31287 5.01972 9.30284C4.98997 9.28731 4.96028 9.27169 4.93022 9.25678C4.90628 9.24491 4.88206 9.23365 4.85794 9.22219C4.83234 9.21003 4.80678 9.19775 4.781 9.18603C4.75475 9.17412 4.72828 9.16278 4.70184 9.15134C4.67769 9.1409 4.65353 9.13041 4.62922 9.12037C4.60203 9.10915 4.57469 9.09837 4.54731 9.08766C4.52303 9.07816 4.49872 9.06872 4.47431 9.05959C4.44722 9.04947 4.42 9.03969 4.39272 9.03009C4.36713 9.02106 4.3415 9.01225 4.31575 9.00366C4.28963 8.99494 4.26344 8.98641 4.23712 8.97812C4.20909 8.96928 4.18094 8.96084 4.15275 8.9525C4.12853 8.94537 4.10434 8.93825 4.08 8.9315C4.04822 8.92266 4.01628 8.91437 3.98431 8.90619C3.96934 8.90234 3.95447 8.898 3.93941 8.89428L3.93587 6.36684L7.94191 2.593ZM8.99759 10.2197L7.08744 9.99975L6.90747 9.97903L6.90378 7.35681L8.99359 7.35387L8.99759 10.2197ZM15.3648 10.8878L12.1926 13.7409C11.9282 13.9552 11.6111 14.097 11.275 14.1509L6.36212 14.8591C6.36109 14.8593 6.36009 14.8594 6.35906 14.8596L6.35566 14.8601C6.20681 14.8837 6.05181 14.8737 5.89491 14.8307L2.39831 13.5066V9.21156H2.78909C3.12175 9.21156 3.45216 9.24997 3.77391 9.32456C3.78588 9.32734 3.79781 9.33019 3.80975 9.33306C3.84928 9.34259 3.88872 9.35241 3.92797 9.36303C3.93141 9.36397 3.93481 9.36497 3.93825 9.36591C3.97759 9.37666 4.01678 9.388 4.05584 9.39984C4.06284 9.40197 4.06987 9.40406 4.07684 9.40622C4.11841 9.41906 4.15978 9.43247 4.20094 9.44653C4.20519 9.448 4.20941 9.4495 4.21366 9.45097C4.29938 9.48056 4.38425 9.51284 4.46806 9.54778C4.47262 9.54969 4.47719 9.55159 4.48175 9.55353C4.52353 9.57109 4.56506 9.58925 4.60631 9.60812C4.60741 9.60862 4.60853 9.60916 4.60962 9.60969C4.6495 9.628 4.68909 9.647 4.72844 9.66653C4.73306 9.66881 4.73772 9.67106 4.74234 9.67337C4.78078 9.69259 4.81891 9.7125 4.85681 9.73287C4.86397 9.73672 4.87109 9.74066 4.87825 9.74453C4.9165 9.76537 4.95453 9.78662 4.99219 9.80866C5.53566 10.1266 6.12728 10.3325 6.75066 10.4207C6.75262 10.421 6.75456 10.4212 6.75653 10.4214L9.31531 10.716C9.32947 10.7181 9.34353 10.7204 9.3575 10.723C9.73419 10.7938 10.0315 11.0721 10.131 11.4346C10.1457 11.4883 10.1561 11.5438 10.1618 11.6008L10.1719 11.703L5.37631 11.2828C5.25075 11.2719 5.13987 11.3648 5.12887 11.4904C5.11784 11.6161 5.21081 11.7268 5.33644 11.7378L10.4065 12.1821C10.4077 12.1822 10.4089 12.1821 10.4101 12.1822C10.4113 12.1823 10.4124 12.1825 10.4137 12.1826L11.3698 12.2362C11.3741 12.2365 11.3783 12.2366 11.3826 12.2366C11.3871 12.2366 11.3916 12.2359 11.3961 12.2356C11.4012 12.2353 11.4063 12.2351 11.4113 12.2345C11.4182 12.2336 11.4248 12.2321 11.4315 12.2307C11.4363 12.2296 11.4411 12.2288 11.4458 12.2274C11.4531 12.2253 11.4601 12.2225 11.4672 12.2197C11.471 12.2181 11.475 12.217 11.4787 12.2152C11.4894 12.2103 11.4998 12.2046 11.5096 12.198L12.3212 11.6548L12.3213 11.6547L14.7183 10.0506C14.9594 9.8885 15.2886 9.95209 15.4521 10.1923C15.6015 10.4119 15.5644 10.7105 15.3648 10.8878Z" fill="#333333"/>
</g>
<defs>
<clipPath id="clip0_538_153">
<rect width="16" height="16" fill="white"/>
</clipPath>
</defs>
</svg>
