<svg width="16" height="16" viewBox="0 0 16 16" fill="none" xmlns="http://www.w3.org/2000/svg">
<g clip-path="url(#clip0_538_164)">
<path d="M15.6219 7.48646C15.3824 7.26551 15.0566 7.12903 14.728 7.11195C14.3548 7.09266 14.0052 7.22571 13.7448 7.48621L11.9658 9.24659C11.9306 9.18568 11.8905 9.12818 11.8454 9.07484C11.6265 8.81495 11.3065 8.67188 10.9443 8.67188H8.45381C7.98421 8.67188 7.52608 8.61097 7.09224 8.49097C5.96114 8.17811 4.88057 8.40662 3.96712 9.15223C3.59566 9.45545 3.32466 9.78529 3.15327 10.0258L2.70674 9.59241C2.64803 9.53541 2.56844 9.50306 2.48653 9.50306C2.48579 9.50306 2.48518 9.50306 2.48445 9.50306C2.39961 9.50367 2.31758 9.53895 2.25874 9.59998L0.087966 11.8535C0.0298605 11.9138 -0.00175573 11.9949 7.53235e-05 12.0786C0.00190638 12.1625 0.0369406 12.2421 0.0976095 12.2998L3.76912 15.7958C3.83003 15.8538 3.90816 15.8827 3.98616 15.8827C4.06807 15.8827 4.14998 15.8508 4.21162 15.7876L6.36214 13.5813C6.42085 13.521 6.45345 13.4386 6.45186 13.3544C6.45027 13.2714 6.41548 13.1913 6.35591 13.1334L6.16866 12.9518L6.59725 12.9036C6.85652 12.8734 7.12019 12.8582 7.38118 12.8582H11.1704C11.7861 12.8582 12.309 12.7235 12.7248 12.4579C12.7282 12.4557 12.7316 12.4534 12.7351 12.4511C12.884 12.3475 13.0191 12.2249 13.1366 12.0866L15.69 9.08253C16.127 8.56849 16.0997 7.92701 15.6219 7.48646ZM3.97798 15.1255L0.76094 12.0623L2.49397 10.2631L5.69222 13.3667L3.97798 15.1255ZM15.2104 8.67481L12.6569 11.679C12.5759 11.7743 12.483 11.859 12.3806 11.9308C12.0684 12.1284 11.6613 12.2288 11.1704 12.2288H7.38106C7.09602 12.2288 6.80782 12.2455 6.52571 12.2783L5.58357 12.384L3.61092 10.4697C3.748 10.2665 4.00008 9.938 4.36519 9.6399C5.12422 9.02027 5.98531 8.83778 6.92439 9.09766C7.41292 9.2328 7.92745 9.3014 8.45381 9.3014H10.9443C11.3916 9.3014 11.5109 9.68885 11.5109 9.91773C11.5109 10.085 11.4572 10.2441 11.3636 10.3545C11.262 10.474 11.1176 10.5346 10.9344 10.5346H8.76644C8.59261 10.5346 8.45174 10.6755 8.45174 10.8494C8.45174 11.0232 8.59261 11.1641 8.76644 11.1641H10.9344C11.3004 11.1641 11.6231 11.0212 11.8433 10.762C12.0266 10.5464 12.1311 10.2629 12.1399 9.95997L14.1888 7.9325C14.4816 7.63966 14.9392 7.71314 15.1951 7.94923C15.3275 8.0713 15.5055 8.32777 15.2104 8.67481Z" fill="#333333"/>
<path d="M7.78491 10.7655C7.74524 10.5962 7.57592 10.4913 7.40661 10.5309C7.23742 10.5705 7.13232 10.7398 7.17212 10.9092L7.17505 10.922C7.2091 11.067 7.33838 11.1649 7.4812 11.1649C7.505 11.1649 7.52917 11.1622 7.55334 11.1566C7.72265 11.1169 7.82763 10.9475 7.78796 10.7783L7.78491 10.7655Z" fill="#333333"/>
<path d="M2.12744 6.76563H5.19434C5.36133 6.76563 5.51587 6.71143 5.6416 6.61987C5.76734 6.71143 5.92188 6.76563 6.08887 6.76563H9.15589C9.32288 6.76563 9.47742 6.71143 9.60315 6.61987C9.72888 6.71143 9.88343 6.76563 10.0504 6.76563H13.1173C13.5375 6.76563 13.8793 6.42371 13.8793 6.00354V4.57337C13.8793 3.93103 13.5198 3.37305 12.9817 3.09778C13.2424 2.78333 13.3994 2.38001 13.3994 1.94055C13.3994 0.939453 12.585 0.125 11.5839 0.125C10.5828 0.125 9.76831 0.939453 9.76831 1.94055C9.76831 2.38001 9.9253 2.78345 10.186 3.09778C9.95349 3.21692 9.7544 3.38892 9.60315 3.59753C9.45191 3.38879 9.25281 3.2168 9.02014 3.09778C9.28089 2.78345 9.43787 2.38001 9.43787 1.94055C9.43787 0.939453 8.62342 0.125 7.62232 0.125C6.62122 0.125 5.80676 0.939453 5.80676 1.94055C5.80676 2.38001 5.96387 2.78345 6.22461 3.0979C5.99195 3.21692 5.79285 3.38892 5.6416 3.59766C5.49036 3.38892 5.29126 3.21692 5.0586 3.09778C5.31934 2.78345 5.47632 2.38001 5.47632 1.94067C5.47632 0.939453 4.66187 0.125 3.66077 0.125C2.65979 0.125 1.84534 0.939453 1.84534 1.94067C1.84534 2.38001 2.00232 2.78345 2.26306 3.0979C1.72498 3.37317 1.36536 3.93128 1.36536 4.57349V6.00354C1.36536 6.42371 1.70728 6.76563 2.12744 6.76563ZM11.584 0.754517C12.2379 0.754517 12.77 1.2865 12.77 1.94055C12.77 2.59448 12.2379 3.12659 11.584 3.12659C10.9299 3.12659 10.398 2.5946 10.398 1.94055C10.3978 1.2865 10.9299 0.754517 11.584 0.754517ZM10.7662 3.56079C11.0122 3.68543 11.2899 3.7561 11.5839 3.7561C11.8779 3.7561 12.1556 3.68543 12.4015 3.56079C12.8906 3.646 13.2499 4.06751 13.2499 4.57337V6.00354C13.2499 6.07666 13.1904 6.13611 13.1173 6.13611H10.0504C9.97742 6.13611 9.91797 6.07666 9.91797 6.00354V4.57337C9.91785 4.06763 10.2772 3.646 10.7662 3.56079ZM7.62244 0.754517C8.27637 0.754517 8.80847 1.2865 8.80847 1.94055C8.80847 2.59448 8.27637 3.12659 7.62244 3.12659C6.96839 3.12659 6.4364 2.5946 6.4364 1.94055C6.4364 1.2865 6.96839 0.754517 7.62244 0.754517ZM6.80481 3.56079C7.05066 3.68543 7.32837 3.7561 7.62244 3.7561C7.91651 3.7561 8.19409 3.68543 8.44007 3.56079C8.92908 3.646 9.28846 4.06751 9.28846 4.57337V6.00354C9.28846 6.07666 9.22901 6.13611 9.15589 6.13611H6.08899C6.01587 6.13611 5.95642 6.07666 5.95642 6.00354V4.57337C5.95642 4.06763 6.3158 3.646 6.80481 3.56079ZM3.66089 0.754517C4.31482 0.754517 4.84693 1.2865 4.84693 1.94055C4.84693 2.59448 4.31482 3.12659 3.66089 3.12659C3.00696 3.12659 2.47485 2.59448 2.47485 1.94055C2.47485 1.2865 3.00696 0.754517 3.66089 0.754517ZM1.99487 4.57337C1.99487 4.06763 2.35425 3.646 2.84326 3.56079C3.08923 3.68543 3.36682 3.7561 3.66089 3.7561C3.95496 3.7561 4.23254 3.68543 4.47852 3.56079C4.96765 3.646 5.32691 4.06751 5.32691 4.57337V6.00354C5.32691 6.07666 5.26746 6.13611 5.19434 6.13611H2.12744C2.05432 6.13611 1.99487 6.07666 1.99487 6.00354V4.57337Z" fill="#333333"/>
</g>
<defs>
<clipPath id="clip0_538_164">
<rect width="16" height="16" fill="white"/>
</clipPath>
</defs>
</svg>
