<svg xmlns="http://www.w3.org/2000/svg" width="25" height="18" viewBox="0 0 25 18" fill="none">
                                            <path d="M12.8125 16.4318C7.78241 16.4318 3.4685 13.3675 1.62255 8.99999C3.4685 4.63252 7.78241 1.56818 12.8125 1.56818C17.8426 1.56818 22.1565 4.63253 24.0025 9C22.1565 13.3675 17.8426 16.4318 12.8125 16.4318ZM6.60795 8.99999C6.60795 12.4251 9.38738 15.2045 12.8125 15.2045C16.2376 15.2045 19.017 12.4251 19.017 8.99999C19.017 5.57487 16.2376 2.79545 12.8125 2.79545C9.38738 2.79545 6.60795 5.57487 6.60795 8.99999ZM10.2898 8.99999C10.2898 7.6033 11.4158 6.47727 12.8125 6.47727C14.2092 6.47727 15.3352 7.6033 15.3352 8.99999C15.3352 10.3967 14.2092 11.5227 12.8125 11.5227C11.4158 11.5227 10.2898 10.3967 10.2898 8.99999Z" stroke="#192E3D" stroke-width="1.5" />
                                        </svg>