<svg width="14" height="17" viewBox="0 0 14 17" fill="none" xmlns="http://www.w3.org/2000/svg">
<g id="Icon" clip-path="url(#clip0_359_2608)">
<path id="Vector" d="M8.61604 9.92104C8.61604 9.92104 8.72764 9.80943 8.95086 9.58622C9.17407 9.363 9.28568 8.93592 9.28568 8.30497C9.28568 7.67401 9.06247 7.13532 8.61604 6.68889C8.16961 6.24247 7.63092 6.01925 6.99997 6.01925C6.36901 6.01925 5.83032 6.24247 5.38389 6.68889C4.93747 7.13532 4.71425 7.67401 4.71425 8.30497C4.71425 8.93592 4.93747 9.47461 5.38389 9.92104C5.83032 10.3675 6.36901 10.5907 6.99997 10.5907C7.63092 10.5907 8.16961 10.3675 8.61604 9.92104ZM9.49104 5.81389C9.49104 5.81389 9.66217 5.98503 10.0044 6.32729C10.3467 6.66955 10.5178 7.32878 10.5178 8.30497C10.5178 9.28116 10.1756 10.1115 9.49104 10.796C8.80651 11.4806 7.97616 11.8228 6.99997 11.8228C6.02378 11.8228 5.19342 11.4806 4.50889 10.796C3.82437 10.1115 3.48211 9.28116 3.48211 8.30497C3.48211 7.32878 3.82437 6.49842 4.50889 5.81389C5.19342 5.12937 6.02378 4.78711 6.99997 4.78711C7.97616 4.78711 8.80651 5.12937 9.49104 5.81389ZM11.241 4.06389C11.241 4.06389 11.2812 4.10407 11.3616 4.18443C11.4419 4.26479 11.4821 4.41806 11.4821 4.64425C11.4821 4.87044 11.4018 5.06389 11.241 5.22461C11.0803 5.38532 10.8869 5.46568 10.6607 5.46568C10.4345 5.46568 10.241 5.38532 10.0803 5.22461C9.91961 5.06389 9.83925 4.87044 9.83925 4.64425C9.83925 4.41806 9.91961 4.22461 10.0803 4.06389C10.241 3.90318 10.4345 3.82282 10.6607 3.82282C10.8869 3.82282 11.0803 3.90318 11.241 4.06389ZM7.683 2.6755C7.683 2.6755 7.57958 2.67625 7.37273 2.67773C7.16589 2.67922 7.04163 2.67997 6.99997 2.67997C6.9583 2.67997 6.73062 2.67848 6.31693 2.6755C5.90324 2.67253 5.58925 2.67253 5.37497 2.6755C5.16068 2.67848 4.87348 2.68741 4.51336 2.70229C4.15324 2.71717 3.84669 2.74693 3.59372 2.79157C3.34074 2.83622 3.12794 2.89128 2.95532 2.95675C2.6577 3.0758 2.3958 3.24842 2.16961 3.47461C1.94342 3.7008 1.7708 3.9627 1.65175 4.26032C1.58627 4.43294 1.53122 4.64574 1.48657 4.89872C1.44193 5.15169 1.41217 5.45824 1.39729 5.81836C1.38241 6.17848 1.37348 6.46568 1.3705 6.67997C1.36752 6.89425 1.36752 7.20824 1.3705 7.62193C1.37348 8.03562 1.37497 8.2633 1.37497 8.30497C1.37497 8.34663 1.37348 8.57431 1.3705 8.988C1.36752 9.40169 1.36752 9.71568 1.3705 9.92997C1.37348 10.1443 1.38241 10.4315 1.39729 10.7916C1.41217 11.1517 1.44193 11.4582 1.48657 11.7112C1.53122 11.9642 1.58627 12.177 1.65175 12.3496C1.7708 12.6472 1.94342 12.9091 2.16961 13.1353C2.3958 13.3615 2.6577 13.5341 2.95532 13.6532C3.12794 13.7187 3.34074 13.7737 3.59372 13.8184C3.84669 13.863 4.15324 13.8928 4.51336 13.9076C4.87348 13.9225 5.16068 13.9315 5.37497 13.9344C5.58925 13.9374 5.90324 13.9374 6.31693 13.9344C6.73062 13.9315 6.9583 13.93 6.99997 13.93C7.04163 13.93 7.26931 13.9315 7.683 13.9344C8.09669 13.9374 8.41068 13.9374 8.62497 13.9344C8.83925 13.9315 9.12645 13.9225 9.48657 13.9076C9.84669 13.8928 10.1532 13.863 10.4062 13.8184C10.6592 13.7737 10.872 13.7187 11.0446 13.6532C11.3422 13.5341 11.6041 13.3615 11.8303 13.1353C12.0565 12.9091 12.2291 12.6472 12.3482 12.3496C12.4137 12.177 12.4687 11.9642 12.5134 11.7112C12.558 11.4582 12.5878 11.1517 12.6026 10.7916C12.6175 10.4315 12.6265 10.1443 12.6294 9.92997C12.6324 9.71568 12.6324 9.40169 12.6294 8.988C12.6265 8.57431 12.625 8.34663 12.625 8.30497C12.625 8.2633 12.6265 8.03562 12.6294 7.62193C12.6324 7.20824 12.6324 6.89425 12.6294 6.67997C12.6265 6.46568 12.6175 6.17848 12.6026 5.81836C12.5878 5.45824 12.558 5.15169 12.5134 4.89872C12.4687 4.64574 12.4137 4.43294 12.3482 4.26032C12.2291 3.9627 12.0565 3.7008 11.8303 3.47461C11.6041 3.24842 11.3422 3.0758 11.0446 2.95675C10.872 2.89128 10.6592 2.83622 10.4062 2.79157C10.1532 2.74693 9.84669 2.71717 9.48657 2.70229C9.12645 2.68741 8.83925 2.67848 8.62497 2.6755C8.41068 2.67253 8.09669 2.67253 7.683 2.6755ZM13.8125 5.47461C13.8422 5.99842 13.8571 6.94187 13.8571 8.30497C13.8571 9.66806 13.8422 10.6115 13.8125 11.1353C13.7529 12.3734 13.3839 13.3318 12.7053 14.0103C12.0268 14.6889 11.0684 15.0579 9.83032 15.1175C9.30651 15.1472 8.36306 15.1621 6.99997 15.1621C5.63687 15.1621 4.69342 15.1472 4.16961 15.1175C2.93151 15.0579 1.97318 14.6889 1.29461 14.0103C0.616037 13.3318 0.246989 12.3734 0.187465 11.1353C0.157703 10.6115 0.142822 9.66806 0.142822 8.30497C0.142822 6.94187 0.157703 5.99842 0.187465 5.47461C0.246989 4.23651 0.616037 3.27818 1.29461 2.59961C1.97318 1.92104 2.93151 1.55199 4.16961 1.49247C4.69342 1.4627 5.63687 1.44782 6.99997 1.44782C8.36306 1.44782 9.30651 1.4627 9.83032 1.49247C11.0684 1.55199 12.0268 1.92104 12.7053 2.59961C13.3839 3.27818 13.7529 4.23651 13.8125 5.47461Z" fill="white"/>
</g>
<defs>
<clipPath id="clip0_359_2608">
<rect width="13.72" height="16" fill="white" transform="matrix(1 0 0 -1 0.139893 16.3052)"/>
</clipPath>
</defs>
</svg>
