<svg width="14" height="17" viewBox="0 0 14 17" fill="none" xmlns="http://www.w3.org/2000/svg">
<g id="Icon" clip-path="url(#clip0_359_2617)">
<path id="Vector" d="M3.25889 5.88567V14.7339H0.312465V5.88567H3.25889ZM3.44639 3.15353C3.45235 3.58805 3.30205 3.95115 2.9955 4.24282C2.68895 4.53448 2.28568 4.68032 1.78568 4.68032H1.76782C1.27973 4.68032 0.88687 4.53448 0.589251 4.24282C0.291632 3.95115 0.142822 3.58805 0.142822 3.15353C0.142822 2.71305 0.296096 2.34847 0.602644 2.05978C0.909191 1.77109 1.30949 1.62674 1.80354 1.62674C2.29758 1.62674 2.69342 1.77109 2.99104 2.05978C3.28866 2.34847 3.44044 2.71305 3.44639 3.15353ZM13.8571 9.66246V14.7339H10.9196V10.0017C10.9196 9.37674 10.7991 8.88716 10.558 8.53299C10.3169 8.17883 9.94044 8.00174 9.42854 8.00174C9.05354 8.00174 8.73955 8.10442 8.48657 8.30978C8.2336 8.51514 8.04461 8.7696 7.91961 9.07317C7.85413 9.25174 7.82139 9.49282 7.82139 9.79639V14.7339H4.88389C4.8958 12.3589 4.90175 10.4333 4.90175 8.9571C4.90175 7.48091 4.89877 6.59996 4.89282 6.31424L4.88389 5.88567H7.82139V7.17139H7.80354C7.92258 6.98091 8.04461 6.81424 8.16961 6.67139C8.29461 6.52853 8.46276 6.37377 8.67407 6.2071C8.88538 6.04043 9.14431 5.91097 9.45086 5.81871C9.75741 5.72645 10.0982 5.68032 10.4732 5.68032C11.491 5.68032 12.3095 6.01811 12.9285 6.69371C13.5476 7.3693 13.8571 8.35889 13.8571 9.66246Z" fill="white"/>
</g>
<defs>
<clipPath id="clip0_359_2617">
<rect width="13.72" height="16" fill="white" transform="matrix(1 0 0 -1 0.139893 16.3052)"/>
</clipPath>
</defs>
</svg>
