<svg width="18" height="19" viewBox="0 0 18 19" fill="none" xmlns="http://www.w3.org/2000/svg">
<g id="Icons" clip-path="url(#clip0_359_2660)">
<path id="Vector" d="M15.75 7.729C15.75 12.979 9 17.479 9 17.479C9 17.479 2.25 12.979 2.25 7.729C2.25 5.93879 2.96116 4.2219 4.22703 2.95603C5.4929 1.69016 7.20979 0.979004 9 0.979004C10.7902 0.979004 12.5071 1.69016 13.773 2.95603C15.0388 4.2219 15.75 5.93879 15.75 7.729Z" stroke="#4E4E4E" stroke-linecap="round" stroke-linejoin="round"/>
<path id="Vector_2" d="M9 9.979C10.2426 9.979 11.25 8.97164 11.25 7.729C11.25 6.48636 10.2426 5.479 9 5.479C7.75736 5.479 6.75 6.48636 6.75 7.729C6.75 8.97164 7.75736 9.979 9 9.979Z" stroke="#4E4E4E" stroke-linecap="round" stroke-linejoin="round"/>
</g>
<defs>
<clipPath id="clip0_359_2660">
<rect width="18" height="18" fill="white" transform="translate(0 0.229004)"/>
</clipPath>
</defs>
</svg>
